<svg width="21" height="20" viewBox="0 0 21 20" fill="none" xmlns="http://www.w3.org/2000/svg">
<path d="M0.897277 16.2198C0.754886 16.2223 0.614019 16.1902 0.486714 16.1264C0.359408 16.0626 0.249451 15.9689 0.166239 15.8533C0.0830277 15.7377 0.0290365 15.6037 0.00888001 15.4628C-0.0112765 15.3218 0.00300111 15.178 0.0504927 15.0438L1.5206 10.1983C1.21996 9.37232 1.06091 8.50154 1.05017 7.62264C1.04785 6.60815 1.25192 5.6038 1.64997 4.67066C2.13251 3.52143 2.88956 2.50809 3.85477 1.71945C4.81997 0.930815 5.96388 0.390953 7.18624 0.147178C8.40859 -0.096596 9.67208 -0.0368411 10.866 0.321206C12.0599 0.679253 13.1477 1.32466 14.0342 2.20087C14.7221 2.89974 15.2726 3.72156 15.6572 4.62361C16.0479 5.55462 16.2492 6.55416 16.2492 7.56384C16.2492 8.57351 16.0479 9.57306 15.6572 10.5041C15.2726 11.4061 14.7221 12.2279 14.0342 12.9268C13.0029 13.9563 11.6981 14.6685 10.2744 14.9791C8.85073 15.2897 7.36784 15.1856 6.0015 14.6792L1.15602 16.1846C1.07174 16.2079 0.984714 16.2197 0.897277 16.2198ZM8.6477 1.7422C7.86784 1.73993 7.09564 1.89597 6.37785 2.20087C4.98732 2.7877 3.87566 3.88673 3.27298 5.27046C2.97054 5.99106 2.81477 6.76471 2.81477 7.5462C2.81477 8.32768 2.97054 9.10133 3.27298 9.82193C3.34304 10.0157 3.34304 10.2279 3.27298 10.4217L2.19097 13.95L5.71924 12.868C5.91304 12.7979 6.12525 12.7979 6.31904 12.868C7.74713 13.4611 9.35135 13.4678 10.7843 12.8867C12.2173 12.3056 13.3638 11.1834 13.9754 9.76312C14.3195 8.88341 14.4467 7.93375 14.3461 6.99449C14.2455 6.05523 13.9201 5.15404 13.3974 4.36717C12.8748 3.58031 12.1702 2.93093 11.3435 2.47401C10.5167 2.01709 9.59203 1.76607 8.6477 1.7422Z" fill="white"/>
<path d="M19.126 19.9721C19.0401 19.9835 18.9531 19.9835 18.8673 19.9721L14.0218 18.5019C12.2014 19.1893 10.1859 19.1473 8.3957 18.3848C6.60549 17.6223 5.17878 16.198 4.41314 14.4092C4.36081 14.3033 4.33087 14.1878 4.32521 14.0698C4.31954 13.9519 4.33827 13.8341 4.38021 13.7237C4.42215 13.6133 4.48642 13.5128 4.56898 13.4283C4.65154 13.3439 4.75063 13.2774 4.86006 13.2331C4.96647 13.1841 5.08155 13.1569 5.1986 13.1529C5.31565 13.149 5.43231 13.1684 5.54179 13.21C5.65127 13.2516 5.75136 13.3146 5.83624 13.3953C5.92112 13.4759 5.98907 13.5727 6.03614 13.68C6.31569 14.3462 6.71422 14.956 7.21223 15.4794C8.03686 16.295 9.08425 16.8485 10.2227 17.0703C11.3611 17.2921 12.5396 17.1723 13.6102 16.726C13.804 16.656 14.0162 16.656 14.21 16.726L17.7382 17.808L16.6562 14.2798C16.5862 14.086 16.5862 13.8738 16.6562 13.68C16.9611 12.9622 17.1172 12.19 17.1149 11.4101C17.1177 10.6435 16.9684 9.88387 16.6757 9.17529C16.383 8.46671 15.9526 7.82322 15.4096 7.28205C15.1716 6.98138 14.908 6.70199 14.6216 6.44703C14.5188 6.38534 14.4296 6.30332 14.3595 6.206C14.2895 6.10867 14.24 5.99809 14.2141 5.88099C14.1882 5.7639 14.1865 5.64276 14.209 5.52498C14.2316 5.40719 14.2779 5.29524 14.3451 5.19596C14.4124 5.09667 14.4992 5.01215 14.6002 4.94754C14.7012 4.88294 14.8144 4.83961 14.9327 4.82021C15.051 4.80081 15.1721 4.80575 15.2885 4.83471C15.4048 4.86368 15.5141 4.91607 15.6095 4.98868C16.0302 5.26026 16.424 5.57137 16.7856 5.91779C17.4773 6.61356 18.0283 7.43615 18.4086 8.34053C18.8076 9.27751 19.0117 10.2859 19.0084 11.3043C19.0059 12.2069 18.8468 13.1023 18.538 13.9505L20.0081 18.796C20.0556 18.9302 20.0698 19.074 20.0497 19.215C20.0295 19.3559 19.9755 19.4899 19.8923 19.6055C19.8091 19.7211 19.6992 19.8148 19.5719 19.8786C19.4445 19.9424 19.3037 19.9745 19.1613 19.9721H19.126Z" fill="white"/>
</svg>
